<svg xmlns="http://www.w3.org/2000/svg" width="581" height="158" viewBox="0 0 581 158"><rect width="100%" height="100%" fill="#DDDDDD"/><path fill="#999999" d="m132.895 59.785-1.96 11.59q1.85-.38 3.54-.56 1.7-.17 3.27-.17 4.39 0 7.74 1.31 3.35 1.31 5.62 3.62 2.28 2.31 3.43 5.41 1.16 3.1 1.16 6.68 0 4.42-1.56 8.08t-4.33 6.26q-2.78 2.6-6.57 4.02-3.79 1.43-8.26 1.43-2.62 0-4.96-.54-2.35-.54-4.41-1.45-2.06-.9-3.81-2.08-1.76-1.17-3.14-2.48l2.92-4.04q.93-1.31 2.43-1.31.96 0 1.96.62 1 .61 2.29 1.34 1.29.73 3.05 1.35 1.75.62 4.21.62 2.62 0 4.62-.85t3.33-2.37q1.33-1.52 2-3.62.68-2.1.68-4.56 0-4.54-2.64-7.1-2.64-2.56-7.8-2.56-3.96 0-8.12 1.46l-5.93-1.69 4.62-27.03h27.49v4.04q0 2.04-1.27 3.31t-4.31 1.27h-15.29Zm49.4 40.24q2.35 0 4.12-.68 1.77-.67 2.98-1.87 1.22-1.19 1.83-2.84.62-1.66.62-3.59 0-4.58-2.54-6.92-2.54-2.35-7.01-2.35t-7.01 2.35q-2.54 2.34-2.54 6.92 0 1.93.62 3.59.61 1.65 1.83 2.84 1.21 1.2 2.98 1.87 1.77.68 4.12.68Zm0-42.32q-2.12 0-3.66.66-1.54.65-2.56 1.75t-1.5 2.52q-.48 1.43-.48 3 0 1.66.4 3.22.41 1.56 1.37 2.77.96 1.21 2.54 1.95 1.58.73 3.89.73t3.89-.73q1.58-.74 2.54-1.95t1.37-2.77q.4-1.56.4-3.22 0-1.57-.5-3-.5-1.42-1.5-2.52t-2.54-1.75q-1.54-.66-3.66-.66Zm9.39 20.1q5.09 1.66 7.51 5.06 2.43 3.41 2.43 8.34 0 3.69-1.41 6.7-1.4 3-3.95 5.12-2.54 2.12-6.1 3.27-3.56 1.16-7.87 1.16-4.31 0-7.87-1.16-3.57-1.15-6.11-3.27-2.54-2.12-3.94-5.12-1.41-3.01-1.41-6.7 0-4.93 2.43-8.34 2.42-3.4 7.51-5.06-4.05-1.69-6.07-4.81-2.02-3.12-2.02-7.51 0-3.16 1.29-5.89 1.29-2.73 3.6-4.75 2.31-2.03 5.52-3.16 3.22-1.14 7.07-1.14t7.06 1.14q3.22 1.13 5.53 3.16 2.31 2.02 3.6 4.75t1.29 5.89q0 4.39-2.02 7.51t-6.07 4.81Zm42.78 21.91h10.01v7.12h-30.8v-7.12h11.28v-32.46q0-1.92.11-3.96l-8.01 6.7q-.69.53-1.36.67-.68.13-1.27.02-.6-.12-1.06-.41-.46-.28-.69-.63l-3.01-4.12 16.98-14.44h7.82v48.63Zm74.03-5.62-5.04 4.96-13.05-13.05-13.17 13.13-5.04-4.97 13.16-13.2-12.55-12.55 5.01-5.01 12.55 12.55 12.47-12.47 5.08 5-12.51 12.52 13.09 13.09Zm52.71 5.62h10.01v7.12h-30.8v-7.12h11.28v-32.46q0-1.92.11-3.96l-8 6.7q-.7.53-1.37.67-.67.13-1.27.02-.6-.12-1.06-.41-.46-.28-.69-.63l-3.01-4.12 16.98-14.44h7.82v48.63Zm32.42-39.93-1.97 11.59q1.85-.38 3.54-.56 1.7-.17 3.28-.17 4.39 0 7.74 1.31 3.34 1.31 5.62 3.62 2.27 2.31 3.42 5.41 1.16 3.1 1.16 6.68 0 4.42-1.56 8.08t-4.33 6.26q-2.77 2.6-6.57 4.02-3.79 1.43-8.26 1.43-2.61 0-4.96-.54t-4.41-1.45q-2.06-.9-3.81-2.08-1.75-1.17-3.14-2.48l2.93-4.04q.92-1.31 2.42-1.31.96 0 1.97.62 1 .61 2.29 1.34 1.29.73 3.04 1.35 1.75.62 4.21.62 2.62 0 4.62-.85 2.01-.85 3.33-2.37 1.33-1.52 2.01-3.62.67-2.1.67-4.56 0-4.54-2.64-7.1-2.63-2.56-7.79-2.56-3.97 0-8.13 1.46l-5.93-1.69 4.62-27.03h27.49v4.04q0 2.04-1.27 3.31t-4.31 1.27h-15.28Zm49.39 40.24q2.35 0 4.12-.68 1.77-.67 2.98-1.87 1.22-1.19 1.83-2.84.62-1.66.62-3.59 0-4.58-2.54-6.92-2.54-2.35-7.01-2.35-4.46 0-7.01 2.35-2.54 2.34-2.54 6.92 0 1.93.62 3.59.62 1.65 1.83 2.84 1.21 1.2 2.98 1.87 1.77.68 4.12.68Zm0-42.32q-2.12 0-3.66.66-1.54.65-2.56 1.75t-1.5 2.52q-.48 1.43-.48 3 0 1.66.4 3.22.41 1.56 1.37 2.77.96 1.21 2.54 1.95 1.58.73 3.89.73t3.89-.73q1.58-.74 2.54-1.95t1.37-2.77q.4-1.56.4-3.22 0-1.57-.5-3-.5-1.42-1.5-2.52t-2.54-1.75q-1.54-.66-3.66-.66Zm9.4 20.1q5.08 1.66 7.5 5.06 2.43 3.41 2.43 8.34 0 3.69-1.41 6.7-1.4 3-3.94 5.12t-6.11 3.27q-3.56 1.16-7.87 1.16-4.31 0-7.87-1.16-3.56-1.15-6.1-3.27-2.55-2.12-3.95-5.12-1.41-3.01-1.41-6.7 0-4.93 2.43-8.34 2.43-3.4 7.51-5.06-4.05-1.69-6.07-4.81-2.02-3.12-2.02-7.51 0-3.16 1.29-5.89 1.29-2.73 3.6-4.75 2.31-2.03 5.53-3.16 3.21-1.14 7.06-1.14 3.85 0 7.07 1.14 3.21 1.13 5.52 3.16 2.31 2.02 3.6 4.75t1.29 5.89q0 4.39-2.02 7.51t-6.06 4.81Z"/></svg>